# xmcd
#
# Track frame offsets: 
#        150
#        26324
#        47884
#        69830
#
# Disc length: 1281 seconds
#
# Revision: 2
# Processed by: cddbd v1.5.2PL0 Copyright (c) Steve Scherf et al.
# Submitted via: ExactAudioCopy v0.99pb4
#
DISCID=2804ff04
DTITLE=Various Artist - Osmose Productions Promo MCD
DYEAR=1995
DGENRE=Metal
TTITLE0=Necromantia - Devilskin
TTITLE1=Dark Tranquillity - Punish My Heaven
TTITLE2=Diabolos Rising - Satanic Propaganda
TTITLE3=Enthroned - Deny the Holy Book of Lies
EXTD=
EXTT0=
EXTT1=
EXTT2=
EXTT3=
PLAYORDER=
